<?xml version="1.0" encoding="UTF-8" standalone="no"?>
<svg
   xmlns:dc="http://purl.org/dc/elements/1.1/"
   xmlns:cc="http://creativecommons.org/ns#"
   xmlns:rdf="http://www.w3.org/1999/02/22-rdf-syntax-ns#"
   xmlns:svg="http://www.w3.org/2000/svg"
   xmlns="http://www.w3.org/2000/svg"
   xmlns:sodipodi="http://sodipodi.sourceforge.net/DTD/sodipodi-0.dtd"
   xmlns:inkscape="http://www.inkscape.org/namespaces/inkscape"
   version="1.0"
   width="1200"
   height="500"
   overflow="scroll"
   id="svg228"
   sodipodi:docname="LaTeX.svg"
   inkscape:version="1.0.1 (3bc2e813f5, 2020-09-07)">
  <metadata
     id="metadata234">
    <rdf:RDF>
      <cc:Work
         rdf:about="">
        <dc:format>image/svg+xml</dc:format>
        <dc:type
           rdf:resource="http://purl.org/dc/dcmitype/StillImage" />
        <dc:title>LaTeX logo</dc:title>
      </cc:Work>
    </rdf:RDF>
  </metadata>
  <defs
     id="defs232" />
  <sodipodi:namedview
     pagecolor="#ffffff"
     bordercolor="#666666"
     borderopacity="1"
     objecttolerance="10"
     gridtolerance="10"
     guidetolerance="10"
     inkscape:pageopacity="0"
     inkscape:pageshadow="2"
     inkscape:window-width="1005"
     inkscape:window-height="689"
     id="namedview230"
     showgrid="false"
     inkscape:zoom="0.49416667"
     inkscape:cx="745.32621"
     inkscape:cy="380.27434"
     inkscape:window-x="1372"
     inkscape:window-y="739"
     inkscape:window-maximized="0"
     inkscape:current-layer="svg228" />
  <title
     id="title214">LaTeX logo</title>
  <g
     transform="matrix(45,0,0,45,40,40)"
     fill="black"
     id="g226">
    <path
       transform="translate(0,0.17)"
       d="M5.46,4.23 C5.46,4.23 5.21,4.23 5.21,4.23 C5.11,5.25 4.97,6.49 3.21,6.49 C3.21,6.49 2.4,6.49 2.4,6.49 C1.93,6.49 1.91,6.42 1.91,6.09 C1.91,6.09 1.91,0.78 1.91,0.78 C1.91,0.44 1.91,0.3 2.85,0.3 C2.85,0.3 3.18,0.3 3.18,0.3 C3.18,0.3 3.18,0 3.18,0 C2.82,0.03 1.92,0.03 1.51,0.03 C1.12,0.03 0.34,0.03 0,0 C0,0 0,0.3 0,0.3 C0,0.3 0.23,0.3 0.23,0.3 C1,0.3 1.02,0.41 1.02,0.77 C1.02,0.77 1.02,6.02 1.02,6.02 C1.02,6.38 1,6.49 0.23,6.49 C0.23,6.49 0,6.49 0,6.49 C0,6.49 0,6.8 0,6.8 C0,6.8 5.19,6.8 5.19,6.8 C5.19,6.8 5.46,4.23 5.46,4.23 z"
       id="path216" />
    <path
       transform="translate(2.48)"
       d="M2.81,0.16 C2.77,0.04 2.75,0 2.62,0 C2.49,0 2.46,0.04 2.42,0.16 C2.42,0.16 0.81,4.24 0.81,4.24 C0.74,4.41 0.62,4.72 0,4.72 C0,4.72 0,4.97 0,4.97 C0,4.97 1.55,4.97 1.55,4.97 C1.55,4.97 1.55,4.72 1.55,4.72 C1.24,4.72 1.05,4.58 1.05,4.38 C1.05,4.33 1.06,4.31 1.08,4.24 C1.08,4.24 1.42,3.38 1.42,3.38 C1.42,3.38 3.4,3.38 3.4,3.38 C3.4,3.38 3.8,4.4 3.8,4.4 C3.82,4.44 3.84,4.49 3.84,4.52 C3.84,4.72 3.46,4.72 3.27,4.72 C3.27,4.72 3.27,4.97 3.27,4.97 C3.27,4.97 5.24,4.97 5.24,4.97 C5.24,4.97 5.24,4.72 5.24,4.72 C5.24,4.72 5.1,4.72 5.1,4.72 C4.63,4.72 4.58,4.65 4.51,4.45 C4.51,4.45 2.81,0.16 2.81,0.16 z M2.41,0.87 C2.41,0.87 3.3,3.13 3.3,3.13 C3.3,3.13 1.52,3.13 1.52,3.13 C1.52,3.13 2.41,0.87 2.41,0.87 z"
       id="path218" />
    <path
       transform="translate(7.03,0.23)"
       d="M6.27,0 C6.27,0 0.18,0 0.18,0 C0.18,0 0,2.24 0,2.24 C0,2.24 0.24,2.24 0.24,2.24 C0.38,0.63 0.53,0.3 2.04,0.3 C2.22,0.3 2.48,0.3 2.58,0.32 C2.79,0.36 2.79,0.47 2.79,0.7 C2.79,0.7 2.79,5.95 2.79,5.95 C2.79,6.29 2.79,6.43 1.74,6.43 C1.74,6.43 1.34,6.43 1.34,6.43 C1.34,6.43 1.34,6.74 1.34,6.74 C1.75,6.71 2.76,6.71 3.22,6.71 C3.68,6.71 4.71,6.71 5.12,6.74 C5.12,6.74 5.12,6.43 5.12,6.43 C5.12,6.43 4.72,6.43 4.72,6.43 C3.67,6.43 3.67,6.29 3.67,5.95 C3.67,5.95 3.67,0.7 3.67,0.7 C3.67,0.5 3.67,0.36 3.85,0.32 C3.96,0.3 4.23,0.3 4.42,0.3 C5.92,0.3 6.07,0.63 6.21,2.24 C6.21,2.24 6.46,2.24 6.46,2.24 C6.46,2.24 6.27,0 6.27,0 z"
       id="path220" />
    <path
       transform="translate(12.5,2.45)"
       d="M6.16,4.2 C6.16,4.2 5.91,4.2 5.91,4.2 C5.66,5.73 5.43,6.46 3.72,6.46 C3.72,6.46 2.4,6.46 2.4,6.46 C1.93,6.46 1.91,6.39 1.91,6.06 C1.91,6.06 1.91,3.4 1.91,3.4 C1.91,3.4 2.8,3.4 2.8,3.4 C3.77,3.4 3.88,3.72 3.88,4.57 C3.88,4.57 4.13,4.57 4.13,4.57 C4.13,4.57 4.13,1.93 4.13,1.93 C4.13,1.93 3.88,1.93 3.88,1.93 C3.88,2.78 3.77,3.09 2.8,3.09 C2.8,3.09 1.91,3.09 1.91,3.09 C1.91,3.09 1.91,0.7 1.91,0.7 C1.91,0.37 1.93,0.3 2.4,0.3 C2.4,0.3 3.68,0.3 3.68,0.3 C5.21,0.3 5.47,0.85 5.63,2.24 C5.63,2.24 5.88,2.24 5.88,2.24 C5.88,2.24 5.6,0 5.6,0 C5.6,0 0,0 0,0 C0,0 0,0.3 0,0.3 C0,0.3 0.23,0.3 0.23,0.3 C1,0.3 1.02,0.41 1.02,0.77 C1.02,0.77 1.02,5.99 1.02,5.99 C1.02,6.35 1,6.46 0.23,6.46 C0.23,6.46 0,6.46 0,6.46 C0,6.46 0,6.77 0,6.77 C0,6.77 5.74,6.77 5.74,6.77 C5.74,6.77 6.16,4.2 6.16,4.2 z"
       id="path222" />
    <path
       transform="translate(17.91,0.17)"
       d="M3.76,2.95 C3.76,2.95 5.13,0.95 5.13,0.95 C5.34,0.63 5.68,0.31 6.57,0.3 C6.57,0.3 6.57,0 6.57,0 C6.57,0 4.19,0 4.19,0 C4.19,0 4.19,0.3 4.19,0.3 C4.59,0.31 4.81,0.53 4.81,0.76 C4.81,0.86 4.79,0.88 4.72,0.99 C4.72,0.99 3.58,2.67 3.58,2.67 C3.58,2.67 2.3,0.75 2.3,0.75 C2.28,0.72 2.23,0.64 2.23,0.6 C2.23,0.48 2.45,0.31 2.87,0.3 C2.87,0.3 2.87,0 2.87,0 C2.53,0.03 1.8,0.03 1.42,0.03 C1.11,0.03 0.49,0.02 0.12,0 C0.12,0 0.12,0.3 0.12,0.3 C0.12,0.3 0.31,0.3 0.31,0.3 C0.86,0.3 1.05,0.37 1.24,0.65 C1.24,0.65 3.07,3.42 3.07,3.42 C3.07,3.42 1.44,5.83 1.44,5.83 C1.3,6.03 1,6.49 0,6.49 C0,6.49 0,6.8 0,6.8 C0,6.8 2.38,6.8 2.38,6.8 C2.38,6.8 2.38,6.49 2.38,6.49 C1.92,6.48 1.75,6.21 1.75,6.03 C1.75,5.94 1.78,5.9 1.85,5.79 C1.85,5.79 3.26,3.7 3.26,3.7 C3.26,3.7 4.84,6.08 4.84,6.08 C4.86,6.12 4.89,6.16 4.89,6.19 C4.89,6.31 4.67,6.48 4.24,6.49 C4.24,6.49 4.24,6.8 4.24,6.8 C4.59,6.77 5.32,6.77 5.69,6.77 C6.11,6.77 6.57,6.78 6.99,6.8 C6.99,6.8 6.99,6.49 6.99,6.49 C6.99,6.49 6.8,6.49 6.8,6.49 C6.28,6.49 6.07,6.44 5.86,6.13 C5.86,6.13 3.76,2.95 3.76,2.95 z"
       id="path224" />
  </g>
  <path
     style="fill:#ffffff;stroke:#ffffff;stroke-width:2.02361"
     d="m 153.42064,257.84601 c 0,-4.30794 0.93101,-5.05902 6.2709,-5.05902 7.30474,0 18.23065,-4.76904 23.0002,-10.03933 1.83267,-2.02508 20.51457,-47.16295 41.51533,-100.30637 21.00075,-53.143419 39.63489,-98.076103 41.4092,-99.850411 2.36075,-2.360754 4.10151,-2.673764 6.4902,-1.167019 1.7953,1.132446 21.2466,47.506886 43.22512,103.05431 27.34357,69.10679 41.3868,102.1499 44.47683,104.65208 3.10664,2.5156 7.91917,3.65674 15.42156,3.65674 10.28363,0 10.90567,0.28854 10.90567,5.05902 v 5.05902 h -43.50759 -43.50759 v -5.05902 c 0,-4.60782 0.77201,-5.05902 8.65598,-5.05902 8.71198,0 17.65094,-4.34659 17.65094,-8.58284 0,-1.25536 -4.32547,-13.48935 -9.61214,-27.18661 l -9.61215,-24.90411 -46.26504,0.48855 -46.26505,0.48855 -7.85431,20.23609 c -8.00051,20.61276 -8.84459,24.47054 -6.62164,30.26347 1.51773,3.95512 11.1242,9.1969 16.85496,9.1969 3.07515,0 4.14771,1.30822 4.14771,5.05902 v 5.05902 h -33.38954 -33.38955 z m 147.72344,-76.7548 c 0,-2.19665 -38.89845,-99.496659 -40.37717,-100.998845 -0.92021,-0.934826 -8.9657,16.822341 -17.87884,39.460375 -8.91315,22.63802 -18.10634,45.94082 -20.42931,51.78399 l -4.22358,10.62395 h 41.45445 c 22.79995,0 41.45445,-0.39126 41.45445,-0.86947 z"
     id="path236" />
  <path
     style="fill:#ffffff;stroke:#ffffff;stroke-width:2.02361"
     d="m 40.098551,346.06833 v -5.87549 l 19.015852,-0.70124 c 30.65215,-1.13035 27.52715,14.68567 27.52715,-139.31844 0,-153.831242 3.130272,-137.939217 -27.433366,-139.275965 C 40.132235,60.062879 40.098551,60.052022 40.098551,54.737856 v -5.323549 h 70.826309 70.8263 v 5.564924 5.564924 l -18.71838,0.01129 c -21.52628,0.01297 -32.97181,2.576172 -35.89524,8.038652 -1.32011,2.466651 -2.04742,50.187333 -2.04742,134.336893 0,118.79837 0.30088,130.81215 3.35252,133.86377 2.95137,2.95139 8.33885,3.26997 45.02529,2.66248 41.02452,-0.6793 41.87083,-0.78131 54.40428,-6.5574 16.03719,-7.39081 30.3384,-22.53501 36.5098,-38.66188 4.32789,-11.3095 10.45516,-41.09397 10.45516,-50.82228 0,-3.77049 1.08516,-4.79395 5.08294,-4.79395 4.71513,0 5.00536,0.54909 4.01079,7.58853 -0.94731,6.70511 -11.11734,102.62831 -11.11734,104.85825 0,0.48141 -52.36088,0.87531 -116.3575,0.87531 H 40.098551 Z"
     id="path238" />
  <path
     style="fill:#ffffff;stroke:#ffffff;stroke-width:2.02361"
     d="m 418.51339,346.07153 v -5.87227 l 27.49568,-0.70446 c 27.24384,-0.69798 27.54039,-0.75645 32.37774,-6.3822 l 4.88206,-5.67778 V 199.43528 c 0,-107.479316 -0.46141,-128.62927 -2.87818,-131.927625 -2.63489,-3.596045 -5.50008,-3.924284 -33.89545,-3.883097 -43.58602,0.06322 -58.25643,5.494609 -68.4738,25.350885 -4.0957,7.959531 -10.0829,34.471867 -10.1259,44.839217 -0.044,10.59859 -2.10262,15.76828 -6.27921,15.76828 -2.09616,0 -3.8112,-1.27885 -3.8112,-2.8419 0,-5.23155 6.06459,-79.003104 7.21082,-87.714592 l 1.1316,-8.600337 h 135.3661 135.36609 l 1.03878,6.576728 c 1.19322,7.554537 7.25239,81.180051 7.24437,88.026981 -0.004,3.10817 -1.21481,4.55312 -3.81652,4.55312 -4.17659,0 -6.23525,-5.16969 -6.27922,-15.76828 -0.0431,-10.40978 -6.03468,-36.881804 -10.19201,-45.030812 -5.57089,-10.919861 -16.21359,-19.254178 -28.57066,-22.373716 -14.71058,-3.713685 -69.29147,-3.864011 -72.96309,-0.200954 -3.39357,3.385662 -5.01013,253.556832 -1.69477,262.276862 3.30188,8.68462 12.71482,11.31612 40.478,11.31612 h 24.3483 v 6.07083 6.07083 h -83.97977 -83.97976 z"
     id="path240" />
  <path
     style="fill:#ffffff;stroke:#ffffff;stroke-width:2.02361"
     d="m 602.66179,447.24877 v -5.87549 l 19.01585,-0.70124 c 30.64521,-1.13008 27.52715,14.55509 27.52715,-138.4734 V 172.13638 l -5.33192,-4.19409 c -4.48346,-3.52668 -8.18666,-4.19409 -23.2715,-4.19409 h -17.93958 v -6.07082 -6.07083 h 125.46374 c 69.00506,0 125.46933,0.22766 125.47615,0.5059 0.006,0.27825 2.73313,21.90557 6.05842,48.06071 3.3253,26.15514 6.05158,48.30111 6.05842,49.21325 0.006,0.91215 -2.0365,1.36746 -4.54071,1.01181 -3.13595,-0.44538 -4.73075,-2.22129 -5.12382,-5.70567 -1.58052,-14.01039 -7.25808,-38.4626 -10.80682,-46.543 -5.58957,-12.72727 -16.84907,-23.52474 -30.02396,-28.79192 -10.42069,-4.16608 -15.08555,-4.53241 -66.06873,-5.18842 -48.76909,-0.62751 -55.22506,-0.33716 -58.17875,2.61653 -2.93351,2.93352 -3.32237,10.44799 -3.32237,64.20291 v 60.88054 l 31.51634,-1.30046 c 47.39151,-1.95551 54.21716,-6.15703 58.12826,-35.78072 1.7841,-13.51327 2.73975,-16.16628 5.8233,-16.16628 3.48321,0 3.68893,3.21624 3.68893,57.67285 0,54.9945 -0.17579,57.67285 -3.78547,57.67285 -3.20782,0 -4.09815,-2.44926 -5.8345,-16.0505 -3.77857,-29.59837 -11.14487,-34.12915 -58.49467,-35.97833 l -31.04219,-1.2123 v 66.9482 c 0,58.16384 0.41724,67.36543 3.17995,70.12814 2.72045,2.72046 10.45502,3.17996 53.52603,3.17996 53.19015,0 65.54134,-1.40248 81.02783,-9.20072 9.68074,-4.87477 21.87887,-16.95143 26.86497,-26.59744 3.68531,-7.12958 10.89946,-30.93487 13.22153,-43.62848 l 1.75835,-9.61214 h -9.85679 c -9.6029,0 -9.85678,-0.15637 -9.85678,-6.07083 0,-5.82443 0.36095,-6.07083 8.89307,-6.07083 12.6755,0 33.35782,-6.93472 41.99434,-14.08059 4.05889,-3.35834 25.29134,-32.57903 47.18323,-64.93485 l 39.80339,-58.82881 -6.63424,-10.50451 c -3.64885,-5.77749 -23.61418,-36.02478 -44.36742,-67.2162 -27.2038,-40.886406 -39.36593,-57.486447 -43.58438,-59.488146 -3.21817,-1.527057 -13.36388,-3.212057 -22.546,-3.744446 -16.42412,-0.952288 -16.69477,-1.054086 -16.69491,-6.279141 l -1.5e-4,-5.31116 h 61.71912 61.7191 l 10e-4,5.564924 c 8.9e-4,4.575031 -0.89152,5.564924 -5.01697,5.564924 -7.48616,0 -21.12322,6.027415 -23.4427,10.361389 -1.41533,2.644595 -1.29709,5.191491 0.38799,8.356992 5.409,10.160985 58.58918,88.532884 60.07508,88.532884 0.8807,0 14.17,-18.56064 29.5319,-41.24587 25.1788,-37.181936 27.7954,-41.862091 26.5571,-47.5001 -1.7077,-7.775298 -11.0838,-15.897967 -20.36,-17.638179 -6.0901,-1.142517 -7.023,-2.094051 -7.023,-7.163152 v -5.845617 h 52.6138 52.6138 v 5.778203 c 0,5.619318 -0.3514,5.811021 -12.7811,6.971722 -17.7365,1.656265 -33.5136,8.021583 -42.3475,17.085285 -4.0749,4.180854 -21.9534,28.829568 -39.73,54.774908 l -32.3211,47.17336 20.7661,31.74738 c 43.1666,65.99324 74.591,112.8581 78.7914,117.50566 6.6085,7.31207 15.9134,10.36314 31.6044,10.36314 h 14.2303 v 6.07083 6.07083 h -60.7083 -60.7082 v -5.80766 c 0,-5.34534 0.6952,-5.88601 8.734,-6.7921 10.9631,-1.2357 19.6077,-6.72528 19.5614,-12.42219 -0.042,-5.17677 -70.05811,-111.57164 -73.42282,-111.57164 -1.28922,0 -17.11745,21.85497 -35.17386,48.56661 -26.90081,39.79556 -32.84706,49.87337 -32.92533,55.8024 -0.13417,10.16137 11.24974,20.08292 23.04295,20.08292 4.41989,0 5.19206,0.90288 5.19206,6.07083 v 6.07083 h -38.18054 -38.18054 l -7.47564,47.0489 c -4.11161,25.8769 -7.93609,48.6425 -8.49883,50.59022 -0.96061,3.32471 -8.87456,3.54132 -129.38598,3.54132 H 602.66179 Z"
     id="path242" />
</svg>
