<?xml version="1.0" encoding="UTF-8" standalone="no"?>
<svg
   xmlns:dc="http://purl.org/dc/elements/1.1/"
   xmlns:cc="http://creativecommons.org/ns#"
   xmlns:rdf="http://www.w3.org/1999/02/22-rdf-syntax-ns#"
   xmlns:svg="http://www.w3.org/2000/svg"
   xmlns="http://www.w3.org/2000/svg"
   xmlns:sodipodi="http://sodipodi.sourceforge.net/DTD/sodipodi-0.dtd"
   xmlns:inkscape="http://www.inkscape.org/namespaces/inkscape"
   height="640"
   width="1024"
   version="1.1"
   id="svg84"
   sodipodi:docname="markdown-light.svg"
   inkscape:version="1.0.1 (3bc2e813f5, 2020-09-07)">
  <metadata
     id="metadata90">
    <rdf:RDF>
      <cc:Work
         rdf:about="">
        <dc:format>image/svg+xml</dc:format>
        <dc:type
           rdf:resource="http://purl.org/dc/dcmitype/StillImage" />
        <dc:title></dc:title>
      </cc:Work>
    </rdf:RDF>
  </metadata>
  <defs
     id="defs88" />
  <sodipodi:namedview
     pagecolor="#ffffff"
     bordercolor="#666666"
     borderopacity="1"
     objecttolerance="10"
     gridtolerance="10"
     guidetolerance="10"
     inkscape:pageopacity="0"
     inkscape:pageshadow="2"
     inkscape:window-width="1517"
     inkscape:window-height="453"
     id="namedview86"
     showgrid="false"
     inkscape:zoom="0.10677381"
     inkscape:cx="2520.2497"
     inkscape:cy="543.70639"
     inkscape:window-x="2391"
     inkscape:window-y="975"
     inkscape:window-maximized="0"
     inkscape:current-layer="svg84"
     inkscape:document-rotation="0"
     inkscape:pagecheckerboard="true"
     showborder="false"
     borderlayer="false"
     fit-margin-top="0"
     fit-margin-left="0"
     fit-margin-right="0"
     fit-margin-bottom="0" />
  <path
     d="M 950.154,0 H 73.846 C 33.127,0 0,33.127 0,73.846 V 566.154 C 0,606.875 33.127,640 73.846,640 H 950.154 C 990.875,640 1024,606.875 1024,566.154 V 73.846 C 1024,33.127 990.875,0 950.154,0 Z M 576,511.875 448,512 V 320 L 352,443.077 256,320 V 512 H 128 V 128 h 128 l 96,128 96,-128 128,-0.125 z m 191.091,32 L 608,320 h 96 V 128 h 128 v 192 h 96 z"
     id="path82" />
  <path
     style="fill:#808000;stroke:#ffffff;stroke-width:0.827809"
     d="M 128.72433,320 V 128.77607 h 63.64047 63.64047 l 47.80071,63.74131 c 26.2904,35.05772 48.03472,63.72531 48.32073,63.70575 0.28601,-0.0195 21.93958,-28.64533 48.11905,-63.61282 l 47.59903,-63.57724 19.03961,-0.5405 c 10.47178,-0.29727 39.2485,-0.54136 63.94826,-0.5424 l 44.90865,-0.002 V 319.5861 511.22393 H 512 448.25869 v -95.71332 c 0,-79.16495 -0.18885,-95.5566 -1.09228,-94.80681 -0.60076,0.49858 -22.11345,27.90785 -47.80598,60.90949 -25.69254,33.00165 -46.95697,60.01913 -47.2543,60.03883 -0.29733,0.0197 -21.88662,-27.34396 -47.97621,-60.80814 C 278.04033,347.37979 256.39839,320 256.03672,320 c -0.36167,0 -0.65758,43.02538 -0.65758,95.61196 v 95.61197 h -63.3274 -63.32741 z"
     id="path92" />
  <path
     style="fill:#808000;stroke:#ffffff;stroke-width:0.827809"
     d="m 763.92937,538.46458 c -1.74499,-2.42571 -37.33466,-52.47945 -79.08817,-111.23053 l -75.91546,-106.82015 47.563,-0.21367 47.563,-0.21368 v -95.60524 -95.60524 h 63.74131 63.74131 V 224.38804 320 h 47.59903 c 26.17946,0 47.59903,0.20418 47.59903,0.45373 0,0.39856 -157.39881,219.86388 -159.00383,221.70324 -0.34458,0.3949 -2.05424,-1.26668 -3.79922,-3.69239 z"
     id="path94" />
  <path
     style="fill:#ffffff;stroke:#ffffff;stroke-width:0.827809"
     d="M 62.359577,638.68738 C 32.178802,633.59438 8.225273,610.44903 1.9810539,580.346 0.49202505,573.16748 0.4356548,563.67104 0.4356548,320 0.4356548,76.32896 0.4920251,66.83253 1.9810539,59.654 4.884972,45.65437 10.933993,34.0118 20.579401,23.8577 30.348057,13.57384 40.14961,7.50033 53.975987,3.16357 L 61.257882,0.87955 H 511.5861 961.91431 l 6.53555,1.89297 c 28.01836,8.11526 47.81364,29.13454 53.56914,56.88148 1.489,7.17853 1.5453,16.67496 1.5453,260.346 0,243.38493 -0.058,253.17645 -1.5407,260.36068 -3.1519,15.27104 -10.3644,28.1344 -21.8562,38.98009 -10.69615,10.0947 -24.66038,17.07122 -38.667,19.31797 -6.42827,1.03115 -893.032712,1.05938 -899.140823,0.0286 z M 848.03524,432.17072 c 65.66928,-91.38398 80.04593,-111.8547 78.88062,-112.31692 -0.78385,-0.31088 -22.37908,-0.59143 -47.98943,-0.62342 l -46.56426,-0.0582 v -95.61196 -95.61197 h -64.56912 -64.56912 v 95.56241 95.56239 l -47.11681,0.25652 c -25.91424,0.14109 -47.36867,0.50867 -47.6765,0.81688 -0.63505,0.6358 157.80086,224.18683 158.70982,223.93752 0.32402,-0.0889 36.72668,-50.44984 80.8948,-111.91326 z M 256.28947,419.54406 c 0.0454,-50.87923 0.33812,-93.42437 0.65052,-94.54476 0.63332,-2.27133 -1.71312,-5.16812 62.5014,77.16076 17.66717,22.65093 32.36585,41.16767 32.66373,41.1483 0.29788,-0.0194 13.76586,-17.03367 29.92883,-37.80958 66.73364,-85.77948 64.09787,-82.52133 64.67814,-79.95096 0.28759,1.274 0.56698,43.75857 0.62085,94.41014 l 0.0979,92.09378 H 512 576.56912 V 319.5861 127.12045 h -42.08378 c -23.14608,0 -52.24703,0.2472 -64.66878,0.54934 l -22.58499,0.54933 -47.29242,63.15559 c -26.01083,34.73558 -47.50501,63.17197 -47.76483,63.19198 -0.25982,0.02 -21.86564,-28.45822 -48.01293,-63.28495 l -47.54053,-63.32133 -64.36217,-0.006 -64.36217,-0.006 V 320 512.05174 h 64.15522 64.15521 l 0.0825,-92.50768 z"
     id="path96" />
  <path
     style="fill:#000000;stroke:#ffffff;stroke-width:0.827809"
     d="M 129.55214,320 V 129.60388 l 63.12045,0.0407 63.12046,0.0407 45.76781,61.01024 c 25.17229,33.55564 46.85571,62.28138 48.18536,63.83497 l 2.41756,2.82471 1.70569,-1.9969 c 0.93814,-1.0983 22.59535,-29.78386 48.12715,-63.74568 l 46.42146,-61.74877 19.16687,-0.54197 c 10.54178,-0.29808 39.00325,-0.54283 63.24771,-0.54387 l 44.08084,-0.002 V 319.5861 510.39612 h -62.88057 -62.88056 l -0.23989,-94.71546 c -0.13194,-52.09352 -0.55648,-95.02577 -0.94343,-95.40502 -0.38695,-0.37925 -1.9976,0.80051 -3.57921,2.62169 -2.40436,2.76857 -70.70629,89.85926 -86.77626,110.64704 -2.73177,3.53376 -5.16997,6.43918 -5.41822,6.45648 -0.24825,0.0173 -6.23795,-7.32567 -13.31042,-16.31775 -89.05353,-113.22421 -82.46983,-104.99489 -83.31954,-104.14559 -0.33009,0.32993 -0.70805,43.40809 -0.83992,95.72924 l -0.23976,95.12937 h -62.46679 -62.46679 z"
     id="path98" />
  <path
     style="fill:#000000;stroke:#ffffff;stroke-width:0.827809"
     d="m 763.92937,536.82433 c -1.74499,-2.41727 -36.95615,-51.91223 -78.24703,-109.98882 l -75.07433,-105.5938 47.13577,-0.21373 47.13577,-0.21373 v -95.60518 -95.60519 h 62.9135 62.9135 v 95.60519 95.60518 l 47.26264,0.21373 47.26265,0.21373 -14.85138,20.69523 c -8.16826,11.38238 -38.49266,53.66274 -67.38755,93.95635 -62.5597,87.2388 -74.3681,103.65726 -75.23568,104.60806 -0.36034,0.3949 -2.08288,-1.25976 -3.82786,-3.67702 z"
     id="path100" />
</svg>
