<?xml version="1.0" encoding="UTF-8" standalone="no"?>
<svg
   xmlns:figma="http://www.figma.com/figma/ns"
   xmlns:dc="http://purl.org/dc/elements/1.1/"
   xmlns:cc="http://creativecommons.org/ns#"
   xmlns:rdf="http://www.w3.org/1999/02/22-rdf-syntax-ns#"
   xmlns:svg="http://www.w3.org/2000/svg"
   xmlns="http://www.w3.org/2000/svg"
   xmlns:xlink="http://www.w3.org/1999/xlink"
   xmlns:sodipodi="http://sodipodi.sourceforge.net/DTD/sodipodi-0.dtd"
   xmlns:inkscape="http://www.inkscape.org/namespaces/inkscape"
   width="44"
   height="51"
   viewBox="0 0 44 51"
   version="2.0"
   id="svg224"
   sodipodi:docname="Jupyter_logo.svg"
   inkscape:version="1.0.1 (3bc2e813f5, 2020-09-07)">
  <metadata
     id="metadata228">
    <rdf:RDF>
      <cc:Work
         rdf:about="">
        <dc:format>image/svg+xml</dc:format>
        <dc:type
           rdf:resource="http://purl.org/dc/dcmitype/StillImage" />
        <dc:title>Group.svg</dc:title>
      </cc:Work>
    </rdf:RDF>
  </metadata>
  <sodipodi:namedview
     pagecolor="#ffffff"
     bordercolor="#666666"
     borderopacity="1"
     objecttolerance="10"
     gridtolerance="10"
     guidetolerance="10"
     inkscape:pageopacity="0"
     inkscape:pageshadow="2"
     inkscape:window-width="1005"
     inkscape:window-height="689"
     id="namedview226"
     showgrid="false"
     inkscape:zoom="9.5294118"
     inkscape:cx="22"
     inkscape:cy="25.5"
     inkscape:window-x="1372"
     inkscape:window-y="739"
     inkscape:window-maximized="0"
     inkscape:current-layer="svg224" />
  <title
     id="title138">Group.svg</title>
  <desc
     id="desc140">Created using Figma 0.90</desc>
  <g
     id="Canvas"
     transform="translate(-1640 -2453)"
     figma:type="canvas">
    <g
       id="g207"
       style="mix-blend-mode:normal;"
       figma:type="group">
      <g
         id="g205"
         style="mix-blend-mode:normal;"
         figma:type="group">
        <g
           id="Group"
           style="mix-blend-mode:normal;"
           figma:type="group">
          <g
             id="g"
             style="mix-blend-mode:normal;"
             figma:type="group">
            <g
               id="path"
               style="mix-blend-mode:normal;"
               figma:type="group">
              <g
                 id="path9 fill"
                 style="mix-blend-mode:normal;"
                 figma:type="vector">
                <use
                   xlink:href="#path0_fill"
                   transform="translate(1640.54 2474.36)"
                   fill="#4E4E4E"
                   style="mix-blend-mode:normal;"
                   id="use142" />
              </g>
            </g>
            <g
               id="g149"
               style="mix-blend-mode:normal;"
               figma:type="group">
              <g
                 id="path10 fill"
                 style="mix-blend-mode:normal;"
                 figma:type="vector">
                <use
                   xlink:href="#path1_fill"
                   transform="translate(1645.68 2474.37)"
                   fill="#4E4E4E"
                   style="mix-blend-mode:normal;"
                   id="use146" />
              </g>
            </g>
            <g
               id="g154"
               style="mix-blend-mode:normal;"
               figma:type="group">
              <g
                 id="path11 fill"
                 style="mix-blend-mode:normal;"
                 figma:type="vector">
                <use
                   xlink:href="#path2_fill"
                   transform="translate(1653.39 2474.26)"
                   fill="#4E4E4E"
                   style="mix-blend-mode:normal;"
                   id="use151" />
              </g>
            </g>
            <g
               id="g159"
               style="mix-blend-mode:normal;"
               figma:type="group">
              <g
                 id="path12 fill"
                 style="mix-blend-mode:normal;"
                 figma:type="vector">
                <use
                   xlink:href="#path3_fill"
                   transform="translate(1660.43 2474.39)"
                   fill="#4E4E4E"
                   style="mix-blend-mode:normal;"
                   id="use156" />
              </g>
            </g>
            <g
               id="g164"
               style="mix-blend-mode:normal;"
               figma:type="group">
              <g
                 id="path13 fill"
                 style="mix-blend-mode:normal;"
                 figma:type="vector">
                <use
                   xlink:href="#path4_fill"
                   transform="translate(1667.55 2472.54)"
                   fill="#4E4E4E"
                   style="mix-blend-mode:normal;"
                   id="use161" />
              </g>
            </g>
            <g
               id="g169"
               style="mix-blend-mode:normal;"
               figma:type="group">
              <g
                 id="path14 fill"
                 style="mix-blend-mode:normal;"
                 figma:type="vector">
                <use
                   xlink:href="#path5_fill"
                   transform="translate(1672.47 2474.29)"
                   fill="#4E4E4E"
                   style="mix-blend-mode:normal;"
                   id="use166" />
              </g>
            </g>
            <g
               id="g174"
               style="mix-blend-mode:normal;"
               figma:type="group">
              <g
                 id="path15 fill"
                 style="mix-blend-mode:normal;"
                 figma:type="vector">
                <use
                   xlink:href="#path6_fill"
                   transform="translate(1679.98 2474.24)"
                   fill="#4E4E4E"
                   style="mix-blend-mode:normal;"
                   id="use171" />
              </g>
            </g>
          </g>
        </g>
        <g
           id="g203"
           style="mix-blend-mode:normal;"
           figma:type="group">
          <g
             id="g181"
             style="mix-blend-mode:normal;"
             figma:type="group">
            <g
               id="path16 fill"
               style="mix-blend-mode:normal;"
               figma:type="vector">
              <use
                 xlink:href="#path7_fill"
                 transform="translate(1673.48 2453.69)"
                 fill="#767677"
                 style="mix-blend-mode:normal;"
                 id="use178" />
            </g>
          </g>
          <g
             id="g186"
             style="mix-blend-mode:normal;"
             figma:type="group">
            <g
               id="path17 fill"
               style="mix-blend-mode:normal;"
               figma:type="vector">
              <use
                 xlink:href="#path8_fill"
                 transform="translate(1643.21 2484.27)"
                 fill="#F37726"
                 style="mix-blend-mode:normal;"
                 id="use183" />
            </g>
          </g>
          <g
             id="g191"
             style="mix-blend-mode:normal;"
             figma:type="group">
            <g
               id="path18 fill"
               style="mix-blend-mode:normal;"
               figma:type="vector">
              <use
                 xlink:href="#path9_fill"
                 transform="translate(1643.21 2457.88)"
                 fill="#F37726"
                 style="mix-blend-mode:normal;"
                 id="use188" />
            </g>
          </g>
          <g
             id="g196"
             style="mix-blend-mode:normal;"
             figma:type="group">
            <g
               id="path19 fill"
               style="mix-blend-mode:normal;"
               figma:type="vector">
              <use
                 xlink:href="#path10_fill"
                 transform="translate(1643.28 2496.09)"
                 fill="#9E9E9E"
                 style="mix-blend-mode:normal;"
                 id="use193" />
            </g>
          </g>
          <g
             id="g201"
             style="mix-blend-mode:normal;"
             figma:type="group">
            <g
               id="path20 fill"
               style="mix-blend-mode:normal;"
               figma:type="vector">
              <use
                 xlink:href="#path11_fill"
                 transform="translate(1641.87 2458.43)"
                 fill="#616262"
                 style="mix-blend-mode:normal;"
                 id="use198" />
            </g>
          </g>
        </g>
      </g>
    </g>
  </g>
  <defs
     id="defs222">
    <path
       id="path0_fill"
       d="M 1.74498 5.47533C 1.74498 7.03335 1.62034 7.54082 1.29983 7.91474C 0.943119 8.23595 0.480024 8.41358 0 8.41331L 0.124642 9.3036C 0.86884 9.31366 1.59095 9.05078 2.15452 8.56466C 2.45775 8.19487 2.6834 7.76781 2.818 7.30893C 2.95261 6.85005 2.99341 6.36876 2.93798 5.89377L 2.93798 0L 1.74498 0L 1.74498 5.43972L 1.74498 5.47533Z" />
    <path
       id="path1_fill"
       d="M 5.50204 4.76309C 5.50204 5.43081 5.50204 6.02731 5.55545 6.54368L 4.496 6.54368L 4.42478 5.48423C 4.20318 5.85909 3.88627 6.16858 3.50628 6.38125C 3.12628 6.59392 2.69675 6.70219 2.26135 6.69503C 1.22861 6.69503 0 6.13415 0 3.84608L 0 0.0445149L 1.193 0.0445149L 1.193 3.6057C 1.193 4.84322 1.57583 5.67119 2.65309 5.67119C 2.87472 5.67358 3.09459 5.63168 3.29982 5.54796C 3.50505 5.46424 3.69149 5.34039 3.84822 5.18366C 4.00494 5.02694 4.1288 4.84049 4.21252 4.63527C 4.29623 4.43004 4.33813 4.21016 4.33575 3.98853L 4.33575 0L 5.52874 0L 5.52874 4.72748L 5.50204 4.76309Z" />
    <path
       id="path2_fill"
       d="M 0.0534178 2.27264C 0.0534178 1.44466 0.0534178 0.768036 0 0.153731L 1.06836 0.153731L 1.12177 1.2666C 1.3598 0.864535 1.70247 0.534594 2.11325 0.311954C 2.52404 0.0893145 2.98754 -0.0176786 3.45435 0.00238095C 5.03908 0.00238095 6.23208 1.32892 6.23208 3.30538C 6.23208 5.63796 4.7987 6.79535 3.24958 6.79535C 2.85309 6.81304 2.45874 6.7281 2.10469 6.54874C 1.75064 6.36937 1.44888 6.10166 1.22861 5.77151L 1.22861 5.77151L 1.22861 9.33269L 0.0534178 9.33269L 0.0534178 2.29935L 0.0534178 2.27264ZM 1.22861 4.00872C 1.23184 4.17026 1.24972 4.33117 1.28203 4.48948C 1.38304 4.88479 1.61299 5.23513 1.93548 5.48506C 2.25798 5.735 2.65461 5.87026 3.06262 5.86944C 4.31794 5.86944 5.05689 4.8456 5.05689 3.3588C 5.05689 2.05897 4.36246 0.946096 3.10714 0.946096C 2.61036 0.986777 2.14548 1.20726 1.79965 1.5662C 1.45382 1.92514 1.25079 2.3979 1.22861 2.89585L 1.22861 4.00872Z" />
    <path
       id="path3_fill"
       d="M 1.31764 0.0178059L 2.75102 3.85499C 2.90237 4.28233 3.06262 4.7987 3.16946 5.18153C 3.2941 4.7898 3.42764 4.29123 3.5879 3.82828L 4.88773 0.0178059L 6.14305 0.0178059L 4.36246 4.64735C 3.47216 6.87309 2.92908 8.02158 2.11 8.71601C 1.69745 9.09283 1.19448 9.35658 0.649917 9.48166L 0.356119 8.48453C 0.736886 8.35942 1.09038 8.16304 1.39777 7.90584C 1.8321 7.55188 2.17678 7.10044 2.4038 6.5882C 2.45239 6.49949 2.48551 6.40314 2.50173 6.3033C 2.49161 6.19586 2.46457 6.0907 2.42161 5.9917L 0 0L 1.29983 0L 1.31764 0.0178059Z" />
    <path
       id="path4_fill"
       d="M 2.19013 0L 2.19013 1.86962L 3.8995 1.86962L 3.8995 2.75992L 2.19013 2.75992L 2.19013 6.26769C 2.19013 7.06896 2.42161 7.53191 3.08043 7.53191C 3.31442 7.53574 3.54789 7.5088 3.77486 7.45179L 3.82828 8.34208C 3.48794 8.45999 3.12881 8.51431 2.76882 8.50234C 2.53042 8.51726 2.29161 8.48043 2.06878 8.39437C 1.84595 8.30831 1.64438 8.17506 1.47789 8.00377C 1.11525 7.51873 0.949826 6.91431 1.01494 6.31221L 1.01494 2.75102L 0 2.75102L 0 1.86072L 1.03274 1.86072L 1.03274 0.275992L 2.19013 0Z" />
    <path
       id="path5_fill"
       d="M 1.17716 3.57899C 1.153 3.88093 1.19468 4.18451 1.29933 4.46876C 1.40398 4.75301 1.5691 5.01114 1.78329 5.22532C 1.99747 5.43951 2.2556 5.60463 2.53985 5.70928C 2.8241 5.81393 3.12768 5.85561 3.42962 5.83145C 4.04033 5.84511 4.64706 5.72983 5.21021 5.49313L 5.41498 6.38343C 4.72393 6.66809 3.98085 6.80458 3.23375 6.78406C 2.79821 6.81388 2.36138 6.74914 1.95322 6.59427C 1.54505 6.43941 1.17522 6.19809 0.869071 5.88688C 0.562928 5.57566 0.327723 5.2019 0.179591 4.79125C 0.0314584 4.38059 -0.0260962 3.94276 0.0108748 3.50777C 0.0108748 1.54912 1.17716 0 3.0824 0C 5.21911 0 5.75329 1.86962 5.75329 3.06262C 5.76471 3.24644 5.76471 3.43079 5.75329 3.61461L 1.15046 3.61461L 1.17716 3.57899ZM 4.66713 2.6887C 4.70149 2.45067 4.68443 2.20805 4.61709 1.97718C 4.54976 1.74631 4.43372 1.53255 4.2768 1.35031C 4.11987 1.16808 3.92571 1.0216 3.70739 0.920744C 3.48907 0.81989 3.25166 0.767006 3.01118 0.765656C 2.52201 0.801064 2.06371 1.01788 1.72609 1.37362C 1.38847 1.72935 1.19588 2.19835 1.18607 2.6887L 4.66713 2.6887Z" />
    <path
       id="path6_fill"
       d="M 0.0534178 2.19228C 0.0534178 1.42663 0.0534178 0.767806 0 0.162404L 1.06836 0.162404L 1.06836 1.43553L 1.12177 1.43553C 1.23391 1.04259 1.4656 0.694314 1.78468 0.439049C 2.10376 0.183783 2.4944 0.034196 2.90237 0.0110538C 3.01466 -0.00368459 3.12839 -0.00368459 3.24068 0.0110538L 3.24068 1.12393C 3.10462 1.10817 2.9672 1.10817 2.83114 1.12393C 2.427 1.13958 2.04237 1.30182 1.7491 1.58035C 1.45583 1.85887 1.27398 2.23462 1.23751 2.63743C 1.20422 2.8196 1.18635 3.00425 1.1841 3.18941L 1.1841 6.65267L 0.00890297 6.65267L 0.00890297 2.20118L 0.0534178 2.19228Z" />
    <path
       id="path7_fill"
       d="M 6.03059 2.83565C 6.06715 3.43376 5.92485 4.02921 5.6218 4.54615C 5.31875 5.0631 4.86869 5.47813 4.32893 5.73839C 3.78917 5.99864 3.18416 6.09233 2.59097 6.00753C 1.99778 5.92272 1.44326 5.66326 0.998048 5.26219C 0.552837 4.86113 0.23709 4.33661 0.0910307 3.75546C -0.0550287 3.17431 -0.0247891 2.56283 0.177897 1.99893C 0.380583 1.43503 0.746541 0.944221 1.22915 0.589037C 1.71176 0.233853 2.28918 0.0303686 2.88784 0.00450543C 3.28035 -0.0170932 3.67326 0.0391144 4.04396 0.169896C 4.41467 0.300677 4.75587 0.503453 5.04794 0.766561C 5.34 1.02967 5.57718 1.34792 5.74582 1.70301C 5.91446 2.0581 6.01124 2.44303 6.03059 2.83565L 6.03059 2.83565Z" />
    <path
       id="path8_fill"
       d="M 18.6962 7.12238C 10.6836 7.12238 3.64131 4.24672 0 0C 1.41284 3.82041 3.96215 7.1163 7.30479 9.44404C 10.6474 11.7718 14.623 13.0196 18.6962 13.0196C 22.7695 13.0196 26.745 11.7718 30.0877 9.44404C 33.4303 7.1163 35.9796 3.82041 37.3925 4.0486e-13C 33.7601 4.24672 26.7445 7.12238 18.6962 7.12238Z" />
    <path
       id="path9_fill"
       d="M 18.6962 5.89725C 26.7089 5.89725 33.7512 8.77291 37.3925 13.0196C 35.9796 9.19922 33.4303 5.90333 30.0877 3.57559C 26.745 1.24785 22.7695 4.0486e-13 18.6962 0C 14.623 4.0486e-13 10.6474 1.24785 7.30479 3.57559C 3.96215 5.90333 1.41284 9.19922 0 13.0196C 3.64131 8.76401 10.648 5.89725 18.6962 5.89725Z" />
    <path
       id="path10_fill"
       d="M 7.59576 3.56656C 7.64276 4.31992 7.46442 5.07022 7.08347 5.72186C 6.70251 6.3735 6.13619 6.89698 5.45666 7.22561C 4.77713 7.55424 4.01515 7.67314 3.26781 7.56716C 2.52046 7.46117 1.82158 7.13511 1.26021 6.63051C 0.698839 6.12591 0.300394 5.46561 0.115637 4.73375C -0.0691191 4.00188 -0.0318219 3.23159 0.222777 2.52099C 0.477376 1.8104 0.93775 1.19169 1.54524 0.743685C 2.15274 0.295678 2.87985 0.0386595 3.63394 0.00537589C 4.12793 -0.0210471 4.62229 0.0501173 5.08878 0.214803C 5.55526 0.37949 5.98473 0.63447 6.35264 0.965179C 6.72055 1.29589 7.01971 1.69584 7.233 2.1422C 7.4463 2.58855 7.56957 3.07256 7.59576 3.56656L 7.59576 3.56656Z" />
    <path
       id="path11_fill"
       d="M 2.25061 4.37943C 1.81886 4.39135 1.39322 4.27535 1.02722 4.04602C 0.661224 3.81668 0.371206 3.48424 0.193641 3.09052C 0.0160762 2.69679 -0.0411078 2.25935 0.0292804 1.83321C 0.0996686 1.40707 0.294486 1.01125 0.589233 0.695542C 0.883981 0.37983 1.2655 0.158316 1.68581 0.0588577C 2.10611 -0.0406005 2.54644 -0.0135622 2.95143 0.136572C 3.35641 0.286707 3.70796 0.553234 3.96186 0.902636C 4.21577 1.25204 4.3607 1.66872 4.37842 2.10027C 4.39529 2.6838 4.18131 3.25044 3.78293 3.67715C 3.38455 4.10387 2.83392 4.35623 2.25061 4.37943Z" />
  </defs>
  <path
     style="fill:#ffffff;stroke:#ffffff;stroke-width:0.104938"
     d="M 6.3088158,50.545689 C 5.5399752,50.375981 4.8677707,49.968768 4.2832211,49.318608 3.1448092,48.05242 3.0558224,46.146319 4.0670021,44.687186 4.6571708,43.835573 6.0268845,43.12963 7.0890684,43.12963 c 1.0580382,0 2.3728889,0.66345 2.9741626,1.500709 0.545592,0.759723 0.708374,1.283493 0.708374,2.279275 0,0.798465 -0.03685,0.969037 -0.344258,1.593469 -0.7722942,1.568752 -2.4640733,2.407799 -4.1185312,2.042606 z"
     id="path230" />
  <path
     style="fill:#ffffff;stroke:#ffffff;stroke-width:0.104938"
     d="M 3.3209877,9.6015632 C 2.5639598,9.3337711 1.9070476,8.4040739 1.9049062,7.5974493 1.9031121,6.9216362 2.4369492,6.0906604 3.0909558,5.7512333 5.1263277,4.6948825 7.1627148,7.2698611 5.6523486,8.9900733 5.0369801,9.6909392 4.1966942,9.9113367 3.3209877,9.6015632 Z"
     id="path232" />
  <path
     style="fill:#ffffff;stroke:#ffffff;stroke-width:0.104938"
     d="m 35.778732,6.5731889 c -2.31458,-0.6418357 -2.989793,-3.4571902 -1.212403,-5.0552162 1.79923,-1.61766245 4.580087,-0.52807213 4.868555,1.9075882 0.229658,1.9390997 -1.778811,3.6682166 -3.656152,3.147628 z"
     id="path234" />
  <path
     style="fill:#ffffff;stroke:#ffffff;stroke-width:0.104938"
     d="m 40.010487,24.608309 0.0389,-3.200332 0.498457,-2.85e-4 0.498456,-2.85e-4 0.0042,0.708334 0.0042,0.708333 0.165966,-0.314815 c 0.352298,-0.668261 1.095798,-1.198702 1.688285,-1.204485 0.213681,-0.0021 0.236111,0.04754 0.236111,0.522386 v 0.524692 h -0.404235 c -0.452541,0 -0.972778,0.303305 -1.317598,0.768177 -0.203541,0.274405 -0.221864,0.455878 -0.25165,2.492284 l -0.03213,2.196329 h -0.583932 -0.583931 z"
     id="path236" />
  <path
     style="fill:#ffffff;stroke:#ffffff;stroke-width:0.104938"
     d="m 34.75,27.920388 c -0.568107,-0.173437 -1.149125,-0.544535 -1.506801,-0.962398 -0.539155,-0.629883 -0.731835,-1.294812 -0.676917,-2.336017 0.101926,-1.932453 1.264849,-3.229508 2.918286,-3.254884 1.561004,-0.02396 2.481542,0.95224 2.685069,2.847417 l 0.07043,0.655864 h -2.33646 -2.33646 l 0.06709,0.498457 c 0.08478,0.629869 0.516384,1.253508 1.063287,1.536377 0.537712,0.278115 1.592752,0.336551 2.36097,0.130768 0.31736,-0.08501 0.584677,-0.146633 0.594036,-0.136936 0.0094,0.0097 0.0492,0.189937 0.08853,0.400535 l 0.07152,0.382904 -0.738736,0.168022 c -0.768688,0.174834 -1.871459,0.208 -2.323849,0.06989 z m 2.391155,-4.400808 c -0.195484,-2.034434 -3.115089,-1.936081 -3.495875,0.117766 l -0.07296,0.393518 h 1.80898 1.808981 z"
     id="path240" />
  <path
     style="fill:#ffffff;stroke:#ffffff;stroke-width:0.104938"
     d="m 29.53465,27.800229 c -0.324692,-0.16072 -0.501793,-0.344409 -0.672959,-0.697991 -0.21975,-0.453942 -0.231031,-0.598065 -0.208797,-2.667596 l 0.0235,-2.187728 h -0.5311 -0.531099 V 21.82716 21.407407 h 0.524691 0.524691 v -0.774579 -0.774579 l 0.466222,-0.117396 c 0.256422,-0.06457 0.492533,-0.117396 0.524691,-0.117396 0.03216,0 0.05847,0.401389 0.05847,0.891975 v 0.891975 h 0.839506 0.839506 v 0.419753 0.419754 h -0.845396 -0.845397 l 0.03213,2.192942 c 0.03803,2.596144 0.05238,2.634218 0.992834,2.634218 h 0.560896 v 0.406023 c 0,0.387659 -0.0178,0.408964 -0.393518,0.471067 -0.644273,0.106492 -0.895093,0.07863 -1.358869,-0.150935 z"
     id="path242" />
  <path
     style="fill:#ffffff;stroke:#ffffff;stroke-width:0.104938"
     d="m 21.013352,30.41644 c -0.16364,-0.469418 -0.158284,-0.482789 0.2837,-0.708272 0.529839,-0.270304 1.186981,-0.93945 1.497581,-1.524935 l 0.251691,-0.474444 -1.272975,-3.150691 -1.272975,-3.150691 h 0.594052 0.594052 l 0.464028,1.233025 c 0.255215,0.678164 0.68868,1.870525 0.963255,2.649691 0.274576,0.779167 0.501966,1.393056 0.505313,1.364198 0.0033,-0.02886 0.39553,-1.209414 0.871518,-2.623457 l 0.865433,-2.570987 0.550926,-0.03172 c 0.303009,-0.01744 0.550926,0.0023 0.550926,0.04383 0,0.140233 -1.861409,4.91104 -2.340654,5.999116 -0.586408,1.331379 -0.994654,1.977095 -1.606653,2.541216 -0.425402,0.392122 -1.024934,0.734599 -1.285971,0.734599 -0.05392,0 -0.149885,-0.148714 -0.213247,-0.330474 z"
     id="path244" />
  <path
     style="fill:#ffffff;stroke:#ffffff;stroke-width:0.104938"
     d="m 13.447531,26.024691 v -4.512345 h 0.472222 c 0.461292,0 0.472393,0.0079 0.479598,0.341049 0.0041,0.187577 0.04083,0.425805 0.08173,0.529394 0.06559,0.166159 0.101781,0.151244 0.307211,-0.126616 0.837712,-1.133065 2.738447,-1.238356 3.797713,-0.210373 0.626936,0.608421 0.871861,1.218981 0.926729,2.310192 0.08029,1.596751 -0.413934,2.642102 -1.552854,3.28451 -0.495399,0.279429 -0.681222,0.325155 -1.311729,0.322778 -0.81704,-0.0031 -1.269763,-0.185058 -1.756405,-0.706011 L 14.601852,26.94694 v 1.795049 1.795048 h -0.577161 -0.57716 z m 3.885868,0.91821 c 0.831231,-0.419925 1.20843,-1.274896 1.127129,-2.554785 -0.07682,-1.209418 -0.67952,-2.027443 -1.624353,-2.204694 -0.748741,-0.140465 -1.703833,0.393953 -2.065262,1.155607 -0.222861,0.469644 -0.237178,2.355822 -0.02102,2.769577 0.510988,0.97811 1.601646,1.330317 2.583508,0.834295 z"
     id="path246" />
  <path
     style="fill:#ffffff;stroke:#ffffff;stroke-width:0.104938"
     d="M 7.2037037,27.885728 C 5.9489227,27.369351 5.6914524,26.586669 5.6853388,23.270062 l -0.00324,-1.757716 H 6.251922 6.8217452 l 0.033572,2.282407 c 0.029903,2.032987 0.055702,2.318982 0.2360796,2.617092 0.3011118,0.497648 0.7551999,0.702782 1.4152882,0.639356 0.6698429,-0.06436 1.0358981,-0.315443 1.3467103,-0.923715 0.2219137,-0.434295 0.2361107,-0.5901 0.2361107,-2.591079 v -2.129 h 0.524692 0.524691 v 3.253087 3.253086 h -0.472222 -0.472223 v -0.524691 c 0,-0.580275 -0.09994,-0.655628 -0.3544363,-0.267225 -0.4329908,0.660827 -1.8730117,1.07818 -2.636304,0.764064 z"
     id="path248" />
  <path
     style="fill:#ffffff;stroke:#ffffff;stroke-width:0.104938"
     d="m 0.71626172,30.573258 c -0.03916,-0.03916 -0.0712,-0.218814 -0.0712,-0.39923 0,-0.297714 0.0415943,-0.339154 0.45007178,-0.448405 0.6409023,-0.171415 0.9722376,-0.52047 1.1118085,-1.171267 0.072157,-0.336457 0.1171321,-1.81341 0.1171321,-3.846558 v -3.300391 h 0.5771605 0.5771605 v 3.231039 c 0,3.55336 -0.070477,4.120111 -0.6095376,4.901677 -0.1662214,0.241 -0.5114474,0.537329 -0.8106658,0.695846 -0.5457574,0.289126 -1.22049874,0.45872 -1.34192998,0.337289 z"
     id="path250" />
</svg>
