<svg id="Layer_1" data-name="Layer 1" xmlns="http://www.w3.org/2000/svg" xmlns:xlink="http://www.w3.org/1999/xlink" viewBox="0 0 841.89 278.59"><defs><mask id="mask" x="24.94" y="24.88" width="436.94" height="228.83" maskUnits="userSpaceOnUse"><g id="b"><path id="a" d="M461.86,253.62H25V24.88H461.86Z" fill="#fff"/></g></mask></defs><title>stickers alt</title><g mask="url(#mask)"><path d="M312.65,185.52c.85,7.88,4,14.16,9.42,18.66s12.41,6.86,21,6.86a32.75,32.75,0,0,0,15.37-3.59,27.42,27.42,0,0,0,10.8-10.07h27.52c-4.67,11.94-11.59,21.23-20.88,27.86s-20,9.9-32.12,9.9a57.64,57.64,0,0,1-22.57-4.32A55,55,0,0,1,302.64,218a57.62,57.62,0,0,1-12.12-18.69,56.38,56.38,0,0,1-4.38-21.76A58.8,58.8,0,0,1,290.08,156a55,55,0,0,1,11.53-18.19,59.67,59.67,0,0,1,19-13.58,51.34,51.34,0,0,1,21.76-4.82,57.14,57.14,0,0,1,26.57,6.42,64.28,64.28,0,0,1,21,18.25A48.87,48.87,0,0,1,397.69,160a75.94,75.94,0,0,1,2.54,20.15c0,.58,0,1.46-.12,2.77s-.15,2.19-.15,2.77H312.36Zm60.45-20.25q-3.24-11-11-16.69c-5.14-3.8-11.64-5.72-19.46-5.72A29.16,29.16,0,0,0,324.39,149a30.18,30.18,0,0,0-11,16.21H373.1Zm88.77-20.44c-9.93.79-16.82,3.4-20.73,7.8s-5.88,12.26-5.88,23.7v55.92H409.75V122.62h23.9v12.66a38.1,38.1,0,0,1,12.66-11,33.12,33.12,0,0,1,15.48-3.5v23.8ZM222.35,32c-30.9-12-142.9-16.5-143.09,50.33-32.68,20.92-54.32,55-54.32,91.52A79.84,79.84,0,1,0,133.22,99.27c-5.78-2.23-18.34-6.18-28.37-5.33-14.31,9.1-31.76,27.8-40,46.43a52.39,52.39,0,1,1,39.8,86.09,52.44,52.44,0,0,1-40-18.43c-14.16-16.67-17.81-34.75-14.89-52.42C59.84,93.68,133.28,58.45,187.89,44.91c-17.81,9.43-49.94,24.92-72.42,41.8C181,112,191.64,56.76,222.35,32Zm26.57,200.21h-20L187.23,122.62h27.19l25.51,72.86,26.33-72.86h26.49l-43.8,109.63Z" fill="#79786f"/></g><path d="M534,185.52c.85,7.88,4,14.16,9.42,18.66s12.41,6.86,21,6.86a32.75,32.75,0,0,0,15.37-3.59,28.65,28.65,0,0,0,10.8-10.07H618c-4.67,11.94-11.68,21.23-20.88,27.86a54.19,54.19,0,0,1-32.12,9.9,57.88,57.88,0,0,1-22.63-4.32A56.47,56.47,0,0,1,523.85,218a57.62,57.62,0,0,1-12.12-18.69,56.38,56.38,0,0,1-4.38-21.76A58.8,58.8,0,0,1,511.29,156a55.1,55.1,0,0,1,11.56-18.19,60.83,60.83,0,0,1,19-13.58,53,53,0,0,1,21.9-4.82,57.27,57.27,0,0,1,26.57,6.42,63.12,63.12,0,0,1,21,18.25A50.27,50.27,0,0,1,619.16,160a72.42,72.42,0,0,1,2.58,20.15c0,.58-.06,1.46-.12,2.77s-.15,2.19-.15,2.77H533.73Zm60.48-20.25c-2.19-7.3-5.84-12.85-11-16.69s-11.62-5.72-19.45-5.72A29.28,29.28,0,0,0,545.73,149a29.88,29.88,0,0,0-10.86,16.21h59.59Zm128.68,67V218.78a28.33,28.33,0,0,1-12.89,12.08c-5.55,2.58-12.66,3.87-21.29,3.87q-24.31,0-40.59-16.6T632.08,177A59.08,59.08,0,0,1,636.17,155a54.78,54.78,0,0,1,11.65-18.25A52.79,52.79,0,0,1,666,124a58.17,58.17,0,0,1,22.41-4.15A49.28,49.28,0,0,1,709,123.92,32.44,32.44,0,0,1,722.83,136V122.75h24.92V232.41H723.14ZM658.2,176.53c0,9.23,3.07,16.94,9.34,23.17A30.09,30.09,0,0,0,690,209c8,0,15.19-3.07,21.32-9.34a30.38,30.38,0,0,0,9.2-21.9,32,32,0,0,0-9.2-22.92q-9.2-9.64-21.46-9.64a30.22,30.22,0,0,0-22.15,9.2,30.58,30.58,0,0,0-9.13,22.34ZM815.9,122.62v22.72H797.5v86.91H772.82V145.34h-13V122.62h12.26v-3q0-17.3,9.64-25.84c6.42-5.65,16.06-8.51,29.06-8.51.58,0,1.46,0,2.63.1a20.67,20.67,0,0,0,2.77.15v22.92h-1.75c-5.75,0-9.93,1-12.41,2.92s-3.68,5.11-3.68,9.49v2h17.93ZM473,232.25H498V87.14H473V232.25Z" fill="#47a141"/></svg>